<svg fill="none" height="633" viewBox="0 0 1474 633" width="1474" xmlns="http://www.w3.org/2000/svg"><path d="m1399.3 365.261c-70.9-31.417-146.41-51.329-223.64-58.98-45.04-4.256-90.39-4.256-135.43 0-59.763 5.626-119.836 11.87-181.09 48.841-31.807 19.351-76.908 46.615-79.331 89.273-2.05 37.774 30.502 66.769 40.628 75.796 50.817 45.193 119.836 39.752 154.066 37.094 62.297-4.178 121.377-29.089 167.737-70.726 41.5-36.668 69.94-85.734 81.07-139.845 4.41-22.257 17.51-94.837-25.35-165.069-54.17-88.6549-154.81-103.4926-177.8-106.0892-90.883-10.3863-160.088 33.6942-199.723 58.9182-52.059 33.199-93.93 81.669-177.672 178.546-36.777 42.535-66.037 79.629-121.885 112.828-60.446 35.981-96.291 34.312-104.926 33.694-51.997-3.71-86.973-37.774-110.02-60.587-17.395-17.125-62.62-61.824-65.975-126.367-.87-16.569-3.106-59.969 25.346-79.135 12.735-8.531 32.428-12.859 47.4-5.069 29.571 15.456 24.849 69.922 23.731 82.534-2.851 29.515-12.985 57.872-29.502 82.549-16.517 24.678-38.905 44.912-65.174 58.904-80.449 41.483-159.656 2.411-167.732-1.67" stroke="#dfecfe" stroke-linecap="round" stroke-miterlimit="10" stroke-width="147.416"/></svg>