<svg width="794" height="500" viewBox="0 0 794 500" fill="none" xmlns="http://www.w3.org/2000/svg">
<path d="M-272 211.154C-175.803 168.531 -73.3661 141.516 31.4173 131.137C92.5252 125.363 154.045 125.363 215.153 131.137C296.233 138.769 377.734 147.241 460.837 197.399C503.99 223.652 565.179 260.641 568.466 318.516C571.247 369.764 527.083 409.102 513.345 421.348C444.402 482.661 350.764 475.28 304.324 471.673C219.8 466.006 139.648 432.209 76.7613 375.719C20.4527 325.972 -18.1383 259.404 -33.2274 185.991C-39.2115 155.796 -56.9951 57.3255 1.15988 -37.9577C74.6543 -158.236 211.192 -178.366 242.377 -181.889C365.682 -195.98 459.573 -136.177 513.345 -101.955C583.974 -56.9137 640.78 8.8452 754.393 140.279C804.288 197.986 843.986 248.311 919.756 293.353C1001.76 342.169 1050.39 339.904 1062.11 339.065C1132.65 334.033 1180.1 287.817 1211.37 256.867C1234.97 233.633 1296.33 172.991 1300.88 85.4241C1302.06 62.9453 1305.1 4.06432 1266.49 -21.9373C1249.22 -33.5122 1222.5 -39.3835 1202.19 -28.8151C1162.07 -7.8461 1168.47 66.0487 1169.99 83.1595C1173.86 123.202 1187.61 161.674 1210.02 195.154C1232.42 228.634 1262.8 256.085 1298.44 275.068C1407.58 331.349 1515.04 278.339 1526 272.803" stroke="white" stroke-opacity="0.1" stroke-width="200" stroke-miterlimit="10" stroke-linecap="round"/>
</svg>
