<svg fill="none" viewBox="0 0 1474 1103" xmlns="http://www.w3.org/2000/svg" xmlns:xlink="http://www.w3.org/1999/xlink"><defs><path id="a" d="m59 15a15 15 0 0 1 15-15h1362a15 15 0 0 1 15 15v338a15 15 0 0 1 -15 15h-1362a15 15 0 0 1 -15-15z" fill="#00338d"/><mask id="b" height="368" maskUnits="userSpaceOnUse" width="1392" x="59" y="0"><use fill="none" xlink:href="#a"/></mask></defs><use xlink:href="#a"/><g mask="url(#b)"><path d="m1585 211.2a989.9 989.9 0 0 0 -303.4-80 976.6 976.6 0 0 0 -183.8 0c-81 7.6-162.5 16-245.6 66.2-43.2 26.3-104.4 63.2-107.7 121.1-2.7 51.3 41.4 90.6 55.2 102.8 68.9 61.4 162.5 54 209 50.4a378.4 378.4 0 0 0 227.5-96 346.2 346.2 0 0 0 110-189.7c6-30.2 23.8-128.7-34.4-224-73.5-120.2-210-140.4-241.2-143.9-123.3-14-217.2 45.7-271 80-70.6 44.9-127.3 110.6-240.9 242.1-49.9 57.7-89.6 108-165.4 153-82 48.9-130.6 46.6-142.3 45.8-70.6-5-118-51.3-149.3-82.2-23.6-23.3-85-84-89.5-171.5-1.2-22.3-4.2-81.2 34.3-107.2 17.3-11.6 44-17.5 64.3-7 40.1 21 33.7 95 32.2 112a243.4 243.4 0 0 1 -128.4 192c-109.2 56.2-216.6 3.2-227.6-2.3" stroke="#fff" stroke-linecap="round" stroke-miterlimit="10" stroke-opacity=".1" stroke-width="200"/></g></svg>