<svg xmlns="http://www.w3.org/2000/svg" fill="none" viewBox="0 0 1560 884"><path stroke="#fff" stroke-linecap="round" stroke-miterlimit="10" stroke-opacity=".1" stroke-width="200" d="M1749 20.5c-172-26.8-347.2-26-519.1 2.3a1619.3 1619.3 0 0 0-293.7 78.7c-126.4 46.9-253 95.3-364.5 211C514 372.7 432 458 451.5 551.7c17.4 83 104.9 126.8 132 140.5 136.5 68.3 283 16.4 355.7-9.3a626.8 626.8 0 0 0 322.7-250.5 571.7 571.7 0 0 0 94.8-349.9c-3.4-50.7-17-215.5-150.8-342.6C1037-420.4 810.2-394 759-386.3c-203.2 30.3-327.7 166-399 243.6C266.1-40.6 203.4 88.7 78 347 23 460.5-19 557.8-121 662.1c-110.1 113-188.8 130.2-208 134-114.9 22.1-210.5-31.3-273.7-67.3-47.6-27-171.6-97.4-216.4-235.2-11.5-35.4-41.5-128 9.1-186 22.7-26 62.9-46.7 99.9-38.6 73 16.3 94.4 137 99.3 165 11 65.5 5.4 132.7-16 195.7A405 405 0 0 1-734 795.1c-150.4 136.6-344.8 98-364.7 93.9"/></svg>