<svg width="1392" height="368" viewBox="0 0 1392 368" fill="none" xmlns="http://www.w3.org/2000/svg">
<path d="M1526 211.154C1429.8 168.531 1327.37 141.516 1222.58 131.137C1161.47 125.363 1099.95 125.363 1038.85 131.137C957.767 138.769 876.266 147.241 793.163 197.399C750.01 223.652 688.821 260.641 685.534 318.516C682.753 369.764 726.917 409.102 740.655 421.348C809.598 482.661 903.236 475.28 949.676 471.673C1034.2 466.006 1114.35 432.209 1177.24 375.719C1233.55 325.972 1272.14 259.404 1287.23 185.991C1293.21 155.796 1311 57.3255 1252.84 -37.9577C1179.35 -158.236 1042.81 -178.366 1011.62 -181.889C888.318 -195.98 794.427 -136.177 740.655 -101.955C670.026 -56.9137 613.22 8.8452 499.607 140.279C449.712 197.986 410.014 248.311 334.244 293.353C252.237 342.169 203.606 339.904 191.891 339.065C121.347 334.033 73.8956 287.817 42.6268 256.867C19.0276 233.633 -42.33 172.991 -46.8813 85.4241C-48.0613 62.9453 -51.0956 4.06432 -12.4941 -21.9373C4.78378 -33.5122 31.5014 -39.3835 51.8135 -28.8151C91.932 -7.8461 85.5266 66.0487 84.0095 83.1595C80.142 123.202 66.3927 161.674 43.984 195.154C21.5754 228.634 -8.79838 256.085 -44.4372 275.068C-153.583 331.349 -261.043 278.339 -272 272.803" stroke="white" stroke-opacity="0.1" stroke-width="200" stroke-miterlimit="10" stroke-linecap="round"/>
</svg>
