<svg fill="none" height="24" viewBox="0 0 24 24" width="24" xmlns="http://www.w3.org/2000/svg"><path d="m.75 12c0 2.2069.63787 4.263 1.7355 6h19.029c1.0976-1.737 1.7355-3.7931 1.7355-6 0-2.20688-.6379-4.263-1.7355-6h-19.029c-1.09763 1.737-1.7355 3.79312-1.7355 6z" fill="#f9f9f9"/><path d="m21.5144 6c-1.9932-3.15375-5.508-5.25-9.5145-5.25-4.00655 0-7.52142 2.09625-9.51455 5.25z" fill="#b4d7ee"/><path d="m2.48535 18c1.99313 3.1537 5.508 5.25 9.51455 5.25 4.0065 0 7.5213-2.0963 9.5145-5.25z" fill="#b4d7ee"/><path d="m17.1536 11.9359-3.0615-.1155c-.0011-.0116-.0015-.0233-.0026-.0349.5006-.0919.8572-.3746 1.3766-.3277.6364.057.9964-.2925 1.2435-.3735.2475-.081.3956.0877.4309.0153.0352-.0727-.1605-.2325-.5123-.1803-.3517.0517-.4563.3191-1.2333.2561-.66-.0533-.891.2119-1.3789.237-.0045-.0158-.009-.0315-.0139-.0473l2.7836-1.2772s.0893-.0371.0645-.09677c-.024-.05962-.114-.0225-.114-.0225l-2.8721 1.06497c-.0052-.0101-.0101-.021-.0157-.0311.4275-.276.6483-.6739 1.146-.8295.6101-.19087.8088-.65137 1.0068-.82087.1973-.16987.399-.0705.4039-.15112.0045-.08063-.2374-.153-.5422.02962-.3053.18263-.3.4695-1.0418.70875-.63.20322-.7421.53662-1.1827.74662-.0102-.0127-.0207-.0251-.0315-.0379l2.0831-2.24584s.069-.06863.0236-.11438c-.0457-.04612-.1147.02288-.1147.02288l-2.2459 2.08314c-.0086-.0075-.0176-.015-.0263-.0221.2892-.41892.3413-.87154.7418-1.20567.4905-.4095.4976-.91087.6157-1.14337.1174-.23213.3413-.21788.315-.294-.0262-.07613-.2775-.05063-.4893.23475-.2123.28537-.0975.54825-.6915 1.05375-.504.429-.4789.77962-.8059 1.14264-.0146-.0079-.0296-.0154-.0443-.0233l1.065-2.87209s.0375-.08963-.0228-.11438c-.0604-.02512-.0975.0645-.0975.0645l-1.2777 2.78325c-.0105-.00337-.0221-.00675-.0333-.01012.1072-.49763-.018-.93563.2242-1.39725.2963-.56625.1114-1.03238.1313-1.29225.0198-.25988.2321-.33188.1788-.39225-.0543-.06038-.276.05925-.3626.40425s.12.54375-.2355 1.23787c-.3019.58913-.1455.90413-.3086 1.36425-.0161-.0015-.0323-.003-.0488-.0045l-.1151-3.0615s0-.09675-.0645-.09675-.0645.09675-.0645.09675l-.1155 3.0615c-.0112.00075-.0232.0015-.0345.00263-.0919-.50063-.375-.85725-.3281-1.37663.057-.63637-.2925-.99637-.3735-1.24387s.0877-.39563.015-.43088c-.0728-.03525-.2321.1605-.1796.51225.0517.35175.3187.45638.2561 1.23375-.0533.65963.2115.89063.237 1.3785-.0158.0045-.0315.009-.0469.01388l-1.2776-2.78325s-.0371-.08963-.09675-.06488c-.05963.02438-.0225.11438-.0225.11438l1.06465 2.87174c-.0102.0056-.0207.0101-.0308.0158-.2764-.42754-.6742-.64842-.8295-1.14604-.19085-.61013-.65135-.80888-.82123-1.0065-.1695-.19763-.07012-.39863-.15075-.40388-.08062-.0045-.153.237.02963.54225.18262.30525.4695.29963.70912 1.04175.20323.62963.53663.74213.74703 1.18312-.0128.0101-.0255.0206-.0383.0311l-2.24585-2.08309s-.06863-.06863-.11438-.02325c-.04575.04575.02288.11437.02288.11437l2.08315 2.24587c-.0075.009-.015.0176-.0225.0266-.4189-.2895-.87153-.3416-1.20565-.74172-.40988-.4905-.91125-.498-1.14375-.61575-.23213-.11737-.2175-.34125-.294-.315-.0765.02663-.05063.2775.23475.48975.28537.21188.54825.09713 1.05375.69112.429.5044.78.4793 1.1422.8063-.0078.0146-.0153.0296-.0232.0442l-2.87175-1.06499s-.08962-.03713-.11437.02287c-.0255.06002.06412.09712.06412.09712l2.78325 1.2773c-.00375.0112-.00675.0225-.01013.0333-.498-.1072-.93562.018-1.39724-.2238-.56625-.2967-1.03238-.1114-1.29188-.1309-.25988-.0199-.33188-.2325-.39263-.1789-.06.054.05963.2756.40425.3623.345.0866.54375-.12 1.23788.2351.58875.3019.90412.1455 1.36425.3086-.00188.0161-.003.0326-.0045.0488l-3.0615.1155s-.09675 0-.09675.0645c0 .0648.09675.0645.09675.0645l3.0615.1155c.00112.0116.0015.0232.00262.0345-.50062.0915-.85725.375-1.37662.3281-.63638-.057-.99638.2921-1.24388.3735-.2475.0806-.39562-.0878-.43087-.0154-.03525.0728.1605.2321.51225.18s.45637-.3187 1.23375-.2561c.65962.0532.89062-.2119 1.3785-.237.0045.0154.00862.0315.01387.0469l-2.78324 1.2772s-.08963.0375-.06488.0971c.02475.0597.11438.0225.11438.0225l2.87207-1.065c.0053.0102.0102.0214.0158.0308-.4275.2767-.64838.6746-1.14638.8299-.61012.1912-.8085.6517-1.0065.8208-.19762.1699-.399.0705-.40387.1512-.00488.0806.237.153.54225-.0297.30525-.1822.29962-.4695 1.04175-.7091.63-.2032.74212-.5366 1.18315-.7462.0101.0123.0206.0247.0311.0375l-2.08313 2.2462s-.06862.0686-.02325.1144c.04575.0454.11438-.0229.11438-.0229l2.2459-2.0835c.009.0079.0176.015.0266.0225-.2891.4189-.3413.8715-.74175 1.2056-.4905.4095-.49763.9113-.61575 1.1438-.11738.2321-.34163.2175-.315.294.02662.0761.2775.0506.48975-.2351.21225-.2858.09712-.5479.69115-1.0534.5043-.4294.4792-.78.8062-1.143.0146.0082.0296.0157.0443.0232l-1.06465 2.8725s-.0375.0893.0225.1144c.05995.0255.09715-.0641.09715-.0641l1.2776-2.7833c.0109.0034.0221.0068.0334.0102-.1073.4972.018.9352-.2243 1.3972-.2962.5666-.1114 1.0324-.1312 1.2919-.0195.2595-.2322.3322-.1785.3922.054.0604.2756-.0592.3622-.4042s-.12-.5434.2355-1.2379c.3015-.5887.1451-.9037.3086-1.3646.0162.0022.0327.003.0488.0049l.1151 3.0611s0 .0971.0645.0971c.0649 0 .0645-.0971.0645-.0971l.1155-3.0611c.0116-.0012.0233-.0019.0345-.0027.0915.5007.3746.8569.3278 1.3767-.057.6363.2925.9963.3735 1.2438.0813.2475-.0874.3957-.0147.4305.0724.0353.2318-.1605.1797-.5126-.0518-.3517-.3192-.4564-.2562-1.2334.0533-.6592-.2115-.8906-.2373-1.3785.0157-.0045.0315-.0086.0472-.0138l1.2773 2.7832s.0375.0896.0971.0653c.0596-.0248.0229-.1144.0229-.1144l-1.065-2.8718c.0101-.006.0206-.0101.0307-.0161.276.4275.6739.6484.8299 1.1464.1905.6101.651.8085.8209 1.0065.1695.1976.0705.3986.1507.4035.0803.0049.153-.237-.0292-.5419-.183-.3052-.4699-.2996-.7095-1.0417-.2033-.63-.5367-.7422-.7467-1.1832.0128-.0101.0255-.0206.0383-.0311l2.2455 2.0835s.069.0686.1144.0229c.0457-.0454-.0229-.1144-.0229-.1144l-2.0831-2.2455c.0075-.009.015-.018.0225-.027.4188.2895.8711.3416 1.2056.7421.4099.4909.9112.498 1.1437.6158.2322.1174.2175.3416.294.3154.0765-.027.051-.2775-.2347-.4902-.2858-.2115-.5486-.0971-1.0541-.6907-.4287-.5048-.7797-.4793-1.1427-.8063.0079-.0146.0162-.0292.0237-.0446l2.8717 1.0654s.0896.0371.1144-.0225c.0259-.0611-.0634-.0979-.0634-.0979l-2.7836-1.2776c.0037-.0109.0067-.0221.0097-.033.498.1069.9357-.0184 1.3977.2239.5662.2962 1.0327.111 1.2918.1308.2599.0199.3319.2325.3927.1789.06-.0536-.0597-.2752-.4043-.3626-.345-.0863-.5441.12-1.2379-.2351-.5891-.3015-.9045-.1452-1.3646-.3087.0019-.0161.003-.0326.0045-.0487l3.0615-.1155s.0968 0 .0968-.0645c0-.0649-.0968-.0645-.0968-.0645z" fill="#f6b40e"/><g fill="#85340a"><path d="m13.116 11.7262c-.105-.1128-.2562-.1747-.399-.1747-.1437 0-.2809.0622-.3615.1916.1612.1451.5182.1605.7605-.0169zm-.1133-.0165c-.0615.0672-.1365.1069-.2149.123.0413-.0258.0694-.0712.0694-.1233 0-.0492-.0244-.0923-.0615-.1185.105.0172.1924.0678.207.1188zm-.384-.1117c-.0319.0266-.0529.0664-.0529.1114 0 .0551.0315.1031.0769.1275-.081-.0109-.1586-.0439-.222-.0942.0506-.0798.1223-.1245.198-.1447z"/><path d="m12.7436 11.4514c-.21 0-.258.0483-.3555.129-.0967.0806-.1451.0645-.1612.0806-.0158.0161 0 .0645.0322.0484.0323-.0162.0971-.0484.1939-.1294.0971-.0806.1939-.0806.2906-.0806.2906 0 .4523.2422.4845.2261.0323-.0161-.1612-.2741-.4845-.2741z"/><path d="m13.3252 11.548-.001-.001v.001"/><path d="m12.1285 11.3861c-.0225.06-.0393.1215-.0506.1841-.0424.24.003.492.1316.7369.0162-.0161.0484-.0322.0645-.0322-.144-.2037-.2013-.4024-.1687-.5862.0165-.0945.057-.1852.1204-.2696.2583-.2422.726-.1942 1.0976.1283-.3555-.4842-.8396-.4519-1.1948-.1613z"/><path d="m12.4842 11.871c-.1298-.0645-.1617-.0967-.1939-.0967-.0323 0-.0323.0322.129.129.1612.0967.4361.1128.711-.0968-.3233.1294-.5171.1294-.6461.0645z"/><path d="m12.3078 12.48c-.0514 0-.0938-.0409-.0968-.0923-.0157.0315-.078.1253-.2006.1302-.123-.0049-.1853-.0987-.2006-.1302-.003.0514-.0458.0923-.0972.0923-.054 0-.0967-.0435-.0967-.0968 0-.0412.0251-.0787.0637-.0926-.0693.0128-.1181.0739-.1181.1436 0 .0807.0664.1448.1466.1448.0473 0 .0912-.0225.1182-.0615.0558.042.1331.0465.1747.0472h.0191c.0413-.0007.1189-.0052.1748-.0472.0274.039.0709.0615.1177.0615.0803 0 .147-.0641.147-.1448 0-.0697-.0495-.1308-.1181-.1436.0386.0139.0638.0514.0638.0926-.0008.0533-.0439.0968-.0975.0968z"/><path d="m11.9985 12.8175h.0023c.0645 0 .1612-.0784.2741-.0139s.1789.1283.2603.1609c-.1459-.0971-.2119-.2434-.3735-.2434-.0323 0-.0964.0177-.1609.0499h-.0023c-.0645-.0322-.1286-.0499-.1608-.0499-.1617 0-.2258.1467-.3709.2434.0806-.0326.1444-.0964.2576-.1609.1133-.0645.2096.0139.2741.0139z"/><path d="m12.001 12.9304h-.0022c-.0604 0-.1088-.0236-.2149-.0188-.0626.0027-.1451.0154-.2629.0503-.0165 0-.0341 0-.0532.0019.3393.0322.1762.2265.5313.2265h.0023c.3551 0 .1946-.1947.534-.2265-.0221-.0019-.0424-.0034-.0608-.0034-.3135-.0923-.3787-.03-.4736-.03zm.0004.2111h-.0023c-.2726 0-.1886-.183-.4698-.18-.0015 0-.0038.0008-.0053.0008.2824-.0604.3469.0345.4748.0345h.0022c.1271 0 .1916-.0938.4691-.036-.2767-.0015-.1972.1807-.4687.1807z"/><path d="m12.0006 13.1962c-.1605 0-.2906.1309-.2906.291.0318-.1346.1526-.2298.2906-.2298.1387 0 .2587.0952.2906.2298.0004-.1605-.1297-.291-.2906-.291z"/><path d="m10.6953 11.548.001-.001z"/><path d="m11.7939 11.4187c.063.0848.1039.1752.1204.2697.0322.1841-.0251.3828-.1691.5861.0161 0 .0487.0161.0648.0322.1283-.2448.1737-.4968.1317-.7368-.0109-.0627-.0282-.1242-.0507-.1842-.3551-.2906-.8396-.3228-1.1947.1609.3709-.3217.8392-.3701 1.0976-.1279z"/><path d="m11.5671 11.5804c.0967.0806.1616.1129.1938.1294.0319.0161.0484-.0323.0319-.0484-.0161-.0161-.0641 0-.1616-.0806-.0968-.0807-.1451-.129-.3551-.129-.3229 0-.5168.2583-.4845.2745.0322.0161.1938-.2262.4845-.2262.0971-.0003.1935-.0003.291.0803z"/><path d="m10.9056 11.7412c.0863.0777.228.1174.3788.1118.0007 0 .0015.0004.0019.0004.0015 0 .003-.0004.0045-.0004.1293-.0064.2647-.0469.375-.1283-.105-.1128-.2562-.1747-.3994-.1747-.1429-.0004-.2805.0619-.3611.1912zm.066 0c.057-.0915.1425-.1365.2307-.1518-.0375.0262-.0619.0693-.0619.1185 0 .0577.0341.1072.0832.1308-.0915-.0063-.1811-.0408-.252-.0975zm.5809-.033c-.0514.0563-.1125.0934-.177.1133.0338-.0266.0555-.0675.0555-.1136 0-.0458-.0214-.0859-.0544-.1125.0912.0213.1632.0671.1759.1128z"/><path d="m11.7267 11.7743c-.0322 0-.0645.0322-.1939.0967-.1293.0645-.3228.0645-.6461-.0645.2745.21.549.1939.7106.0968.162-.0968.162-.129.1294-.129z"/></g></svg>