<svg viewBox="0 0 512 512" xmlns="http://www.w3.org/2000/svg"><circle cx="256" cy="256" fill="#f0f0f0" r="256"/><path d="m244.87 256h267.13c0-23.106-3.08-45.49-8.819-66.783h-258.311zm0-133.565h229.556a257.35 257.35 0 0 0 -59.07-66.783h-170.486zm11.13 389.565c60.249 0 115.626-20.824 159.356-55.652h-318.712c43.73 34.828 99.107 55.652 159.356 55.652zm-218.426-122.435h436.852a254.474 254.474 0 0 0 28.755-66.783h-494.362a254.474 254.474 0 0 0 28.755 66.783z" fill="#d80027"/><path d="m118.584 39.978h23.329l-21.7 15.765 8.289 25.509-21.699-15.765-21.699 15.765 7.16-22.037a257.407 257.407 0 0 0 -49.652 55.337h7.475l-13.813 10.035a255.58 255.58 0 0 0 -6.194 10.938l6.596 20.301-12.306-8.941a253.567 253.567 0 0 0 -8.372 19.873l7.267 22.368h26.822l-21.7 15.765 8.289 25.509-21.699-15.765-12.998 9.444a258.468 258.468 0 0 0 -1.979 31.921h256v-256c-50.572 0-97.715 14.67-137.416 39.978zm9.918 190.422-21.699-15.765-21.699 15.765 8.289-25.509-21.7-15.765h26.822l8.288-25.509 8.288 25.509h26.822l-21.7 15.765zm-8.289-100.083 8.289 25.509-21.699-15.765-21.699 15.765 8.289-25.509-21.7-15.765h26.822l8.288-25.509 8.288 25.509h26.822zm100.115 100.083-21.699-15.765-21.699 15.765 8.289-25.509-21.7-15.765h26.822l8.288-25.509 8.288 25.509h26.822l-21.7 15.765zm-8.289-100.083 8.289 25.509-21.699-15.765-21.699 15.765 8.289-25.509-21.7-15.765h26.822l8.288-25.509 8.288 25.509h26.822zm0-74.574 8.289 25.509-21.699-15.765-21.699 15.765 8.289-25.509-21.7-15.765h26.822l8.288-25.509 8.288 25.509h26.822z" fill="#0052b4"/></svg>