<svg fill="none" height="24" viewBox="0 0 24 24" width="24" xmlns="http://www.w3.org/2000/svg" xmlns:xlink="http://www.w3.org/1999/xlink"><mask id="a" height="24" maskUnits="userSpaceOnUse" width="24" x="0" y="0"><path clip-rule="evenodd" d="m21.5144 6c-1.9932-3.15375-5.508-5.25-9.5145-5.25-4.00655 0-7.52142 2.09625-9.51455 5.25h.00015c-1.09763 1.737-1.7355 3.79313-1.7355 6 0 2.2069.63787 4.263 1.7355 6h-.00015c1.99313 3.1537 5.508 5.25 9.51455 5.25 4.0065 0 7.5213-2.0963 9.5145-5.25h.0001c1.0976-1.737 1.7355-3.7931 1.7355-6 0-2.20687-.6379-4.263-1.7355-6z" fill="#b4d7ee" fill-rule="evenodd"/></mask><g mask="url(#a)"><path d="m-2-1h27v14h-27z" fill="#fcd116"/><path d="m-2 13h27v6h-27z" fill="#003893"/><path d="m-2 19h27v6h-27z" fill="#ce1126"/></g></svg>