<svg viewBox="0 0 800 800" xmlns="http://www.w3.org/2000/svg"><g fill="none"><path d="m0 0h800v800h-800z" fill="#eaeaea"/><path d="m366.333 365.833c0 5.695-1.993 10.535-5.979 14.521s-8.826 5.98-14.52 5.98c-5.695 0-10.535-1.994-14.522-5.98-3.986-3.986-5.979-8.826-5.979-14.52 0-5.695 1.993-10.535 5.98-14.522 3.986-3.986 8.826-5.979 14.52-5.979 5.695 0 10.535 1.993 14.521 5.98 3.986 3.986 5.98 8.826 5.98 14.52zm109.334 41v47.834h-150.334v-20.5l34.167-34.167 17.083 17.083 54.667-54.666zm10.25-75.166h-170.834c-.925 0-1.726.338-2.402 1.014s-1.014 1.477-1.014 2.402v129.834c0 .925.338 1.726 1.014 2.402s1.477 1.014 2.402 1.014h170.834c.925 0 1.726-.338 2.402-1.014s1.014-1.477 1.014-2.402v-129.834c0-.925-.338-1.726-1.014-2.402s-1.477-1.014-2.402-1.014zm17.083 3.416v129.834c0 4.698-1.673 8.72-5.018 12.065-3.346 3.345-7.367 5.018-12.065 5.018h-170.834c-4.698 0-8.72-1.673-12.065-5.018-3.345-3.346-5.018-7.367-5.018-12.065v-129.834c0-4.698 1.673-8.72 5.018-12.065 3.346-3.345 7.367-5.018 12.065-5.018h170.834c4.698 0 8.72 1.673 12.065 5.018 3.345 3.346 5.018 7.367 5.018 12.065z" fill="#fff"/></g></svg>