<svg width="1560" height="1066" viewBox="0 0 1560 1066" fill="none" xmlns="http://www.w3.org/2000/svg">
<mask id="mask0_565_119992" style="mask-type:alpha" maskUnits="userSpaceOnUse" x="-1" y="0" width="1561" height="1066">
<rect x="-0.000976562" width="1560" height="1066" fill="#00338D"/>
</mask>
<g mask="url(#mask0_565_119992)">
<path d="M-417.373 1285.48C-318.828 1141.99 -197.961 1015.02 -59.3638 909.401C21.706 848.199 108.363 794.758 199.445 749.792C320.272 690.09 442.419 631.202 602.968 629.533C686.516 628.958 804.779 627.811 859.591 706.326C907.944 775.964 879.844 869.637 871.111 898.788C827.162 1044.88 688.864 1115.85 620.322 1151.12C496.348 1216.58 354.142 1238.68 216.579 1213.89C94.1293 1192.86 -17.9496 1132.79 -102.858 1042.68C-137.469 1005.43 -247.901 882.427 -248.602 697.942C-249.369 464.989 -74.4973 318.078 -33.6255 286.035C127.843 159.11 311.952 161.631 417.367 163.034C555.909 165.007 692.944 208.116 966.941 294.216C1087.26 332.007 1186.81 368.279 1332.6 365.786C1490.44 363.182 1556.98 317.753 1572.75 306.397C1667.75 238.04 1694.52 131.842 1711.73 61.1634C1724.83 7.99704 1758.67 -130.566 1689.16 -257.636C1671.33 -290.266 1624.55 -375.688 1547.63 -378.713C1513.25 -379.978 1470.53 -365.024 1451.08 -332.52C1412.75 -268.187 1485.85 -169.857 1502.82 -147.117C1542.99 -94.1776 1595.71 -52.0313 1656.31 -24.4249C1716.9 3.18144 1783.49 15.3924 1850.15 11.1225C2052.69 -4.56121 2158.1 -172.441 2168.73 -189.742" stroke="white" stroke-opacity="0.1" stroke-width="200" stroke-miterlimit="10" stroke-linecap="round"/>
</g>
</svg>
